# xmcd CD database file
#
# Track frame offsets:
#	150
#	9780
#	32677
#	56405
#	79362
#	100417
#	122887
#	143665
#	161220
#	183402
#	206620
#	227597
#
# Disc length: 3280 seconds
#
# Revision: 7
# Processed by: cddbd v1.5PL3 Copyright (c) Steve Scherf et al.
# Submitted via: CDex 1.50
#
DISCID=9a0cce0c
DTITLE=槇原敬之 - 本日ハ晴天ナリ
DYEAR=2002
DGENRE=J-pop
TTITLE0=AMAZING GRACE
TTITLE1=Wow
TTITLE2=24hr Supermarket
TTITLE3=縁
TTITLE4=花火の夜
TTITLE5=君の声を待つ夜
TTITLE6=これはただの例え話じゃない
TTITLE7=さよなら小さな街
TTITLE8=I got a friend.
TTITLE9=雨ニモ負ケズ(Album Ver.)
TTITLE10=本日ハ晴天ナリ
TTITLE11=Turtle Walk(Album Ver.)
EXTD=YEAR: 2002
EXTT0=
EXTT1=
EXTT2=
EXTT3=
EXTT4=
EXTT5=
EXTT6=
EXTT7=
EXTT8=
EXTT9=
EXTT10=
EXTT11=
PLAYORDER=
